<?xml version="1.0" encoding="UTF-8" standalone="no"?>
<svg 
    role="img" 
    xmlns="http://www.w3.org/2000/svg" 
    width="1000mm"
    height="1000mm"
    viewBox="0 0 1000 1000"
    style="max-width:1.6em; height: auto;">
    
    <path 
        id="path" 
        style="opacity:1;vector-effect:none;fill:#000000;fill-opacity:1;"
        d=" M 442 101C 442 101 442 101 442 101C 463 82 482 74 500 74C 518 74 537 82 558 101C 578 120 598 151 615 191C 632 229 645 274 654 323C 654 323 346 322 346 322C 355 273 368 228 385 191C 402 151 422 120 442 101M 199 199C 199 199 199 199 199 199C 251 146 316 109 386 89C 368 112 353 139 339 171C 320 215 305 267 295 322C 295 322 113 321 113 321C 134 276 163 234 199 199M 661 171C 661 171 661 171 661 171C 647 139 632 112 614 89C 684 109 749 146 801 199C 838 235 867 278 888 324C 888 324 705 323 705 323C 695 267 681 216 661 171M 74 500C 74 500 74 500 74 500C 74 456 80 413 94 371C 94 371 287 372 287 372C 282 413 279 456 279 500C 279 548 283 595 289 640C 289 640 97 640 97 640C 82 595 74 548 74 500M 329 500C 329 500 329 500 329 500C 329 456 332 413 338 372C 338 372 662 373 662 373C 668 414 671 457 671 500C 671 548 667 595 661 640C 661 640 339 640 339 640C 333 595 329 548 329 500M 721 500C 721 500 721 500 721 500C 721 457 718 414 713 373C 713 373 907 374 907 374C 920 414 926 457 926 500C 926 548 918 595 903 640C 903 640 711 640 711 640C 717 595 721 548 721 500M 199 801C 199 801 199 801 199 801C 165 768 138 731 118 690C 118 690 297 690 297 690C 307 741 321 788 339 829C 353 861 368 888 386 911C 316 891 251 854 199 801M 385 809C 385 809 385 809 385 809C 370 775 357 734 348 690C 348 690 652 690 652 690C 643 734 630 775 615 809C 598 849 578 880 558 899C 537 918 518 926 500 926C 482 926 463 918 442 899C 422 880 402 849 385 809M 661 829C 661 829 661 829 661 829C 679 788 693 741 703 690C 703 690 882 690 882 690C 861 731 834 769 801 801C 749 854 684 891 614 911C 632 888 647 861 661 829"
        transform="">
    </path>    
</svg>